<svg width="98" height="24" viewBox="0 0 98 24" fill="none" xmlns="http://www.w3.org/2000/svg">
<path d="M11.928 5.424C11.816 5.312 11.608 5.16 11.304 4.968C11.016 4.776 10.656 4.592 10.224 4.416C9.808 4.224 9.352 4.064 8.856 3.936C8.36 3.808 7.856 3.744 7.344 3.744C6.432 3.744 5.752 3.912 5.304 4.248C4.856 4.584 4.632 5.056 4.632 5.664C4.632 6.016 4.712 6.312 4.872 6.552C5.048 6.776 5.296 6.976 5.616 7.152C5.936 7.328 6.336 7.488 6.816 7.632C7.312 7.776 7.88 7.928 8.52 8.088C9.352 8.312 10.104 8.552 10.776 8.808C11.464 9.064 12.04 9.384 12.504 9.768C12.984 10.152 13.352 10.616 13.608 11.16C13.864 11.688 13.992 12.344 13.992 13.128C13.992 14.04 13.816 14.824 13.464 15.48C13.128 16.12 12.664 16.64 12.072 17.04C11.496 17.44 10.824 17.736 10.056 17.928C9.304 18.104 8.512 18.192 7.68 18.192C6.4 18.192 5.136 18 3.888 17.616C2.64 17.232 1.52 16.688 0.528 15.984L1.992 13.128C2.136 13.272 2.392 13.464 2.76 13.704C3.144 13.928 3.592 14.16 4.104 14.4C4.616 14.624 5.184 14.816 5.808 14.976C6.432 15.136 7.072 15.216 7.728 15.216C9.552 15.216 10.464 14.632 10.464 13.464C10.464 13.096 10.36 12.784 10.152 12.528C9.944 12.272 9.648 12.048 9.264 11.856C8.88 11.664 8.416 11.488 7.872 11.328C7.328 11.168 6.72 10.992 6.048 10.8C5.232 10.576 4.52 10.336 3.912 10.08C3.32 9.808 2.824 9.496 2.424 9.144C2.024 8.776 1.72 8.36 1.512 7.896C1.32 7.416 1.224 6.848 1.224 6.192C1.224 5.328 1.384 4.56 1.704 3.888C2.024 3.216 2.464 2.656 3.024 2.208C3.6 1.76 4.264 1.424 5.016 1.2C5.768 0.959999 6.576 0.839999 7.44 0.839999C8.64 0.839999 9.744 1.032 10.752 1.416C11.76 1.784 12.64 2.224 13.392 2.736L11.928 5.424ZM16.0249 20.448C16.2969 20.528 16.5609 20.584 16.8169 20.616C17.0729 20.664 17.2889 20.688 17.4649 20.688C17.6729 20.688 17.8649 20.648 18.0409 20.568C18.2169 20.488 18.3769 20.344 18.5209 20.136C18.6649 19.944 18.8089 19.672 18.9529 19.32C19.0969 18.968 19.2489 18.528 19.4089 18L14.4409 5.424H17.7529L21.1609 15.216L24.1849 5.424H27.2089L21.9289 20.496C21.6249 21.376 21.1049 22.096 20.3689 22.656C19.6329 23.216 18.7209 23.496 17.6329 23.496C17.3769 23.496 17.1129 23.472 16.8409 23.424C16.5849 23.392 16.3129 23.328 16.0249 23.232V20.448ZM33.7423 18.24C32.8783 18.24 32.0783 18.072 31.3423 17.736C30.6063 17.4 29.9743 16.936 29.4463 16.344C28.9183 15.752 28.5023 15.064 28.1983 14.28C27.9103 13.48 27.7663 12.624 27.7663 11.712C27.7663 10.8 27.9023 9.952 28.1743 9.168C28.4623 8.384 28.8543 7.696 29.3503 7.104C29.8463 6.512 30.4383 6.048 31.1263 5.712C31.8143 5.376 32.5663 5.208 33.3823 5.208C34.3103 5.208 35.1423 5.432 35.8783 5.88C36.6303 6.328 37.2143 6.912 37.6303 7.632V0.48H40.8463V14.304C40.8463 14.64 40.9023 14.88 41.0143 15.024C41.1263 15.168 41.3183 15.248 41.5903 15.264V18C41.0303 18.112 40.5743 18.168 40.2223 18.168C39.6463 18.168 39.1743 18.024 38.8063 17.736C38.4383 17.448 38.2303 17.072 38.1823 16.608L38.1103 15.816C37.6463 16.616 37.0143 17.224 36.2143 17.64C35.4303 18.04 34.6063 18.24 33.7423 18.24ZM34.5823 15.504C34.8863 15.504 35.1983 15.456 35.5183 15.36C35.8383 15.248 36.1343 15.096 36.4063 14.904C36.6783 14.712 36.9183 14.488 37.1263 14.232C37.3503 13.976 37.5183 13.696 37.6303 13.392V10.392C37.5023 10.04 37.3183 9.72 37.0783 9.432C36.8543 9.128 36.5903 8.872 36.2863 8.664C35.9983 8.44 35.6863 8.264 35.3503 8.136C35.0303 8.008 34.7103 7.944 34.3903 7.944C33.9103 7.944 33.4623 8.048 33.0463 8.256C32.6463 8.464 32.3023 8.752 32.0143 9.12C31.7263 9.472 31.5023 9.88 31.3423 10.344C31.1823 10.808 31.1023 11.288 31.1023 11.784C31.1023 12.312 31.1903 12.8 31.3663 13.248C31.5423 13.696 31.7823 14.088 32.0863 14.424C32.3903 14.76 32.7503 15.024 33.1663 15.216C33.5983 15.408 34.0703 15.504 34.5823 15.504ZM63.9767 18V6.72L59.5847 15.12H57.7847L53.3927 6.72V18H50.0807V0.959999H53.6327L58.6727 10.656L63.7607 0.959999H67.2887V18H63.9767ZM76.2023 18.24C75.1943 18.24 74.2823 18.072 73.4663 17.736C72.6503 17.384 71.9543 16.912 71.3783 16.32C70.8023 15.728 70.3543 15.04 70.0343 14.256C69.7303 13.472 69.5783 12.648 69.5783 11.784C69.5783 10.888 69.7303 10.048 70.0343 9.264C70.3383 8.464 70.7783 7.768 71.3543 7.176C71.9303 6.568 72.6263 6.088 73.4423 5.736C74.2743 5.384 75.2023 5.208 76.2263 5.208C77.2503 5.208 78.1623 5.384 78.9623 5.736C79.7783 6.088 80.4663 6.56 81.0262 7.152C81.6023 7.744 82.0343 8.432 82.3223 9.216C82.6263 10 82.7783 10.816 82.7783 11.664C82.7783 11.872 82.7703 12.072 82.7543 12.264C82.7543 12.456 82.7383 12.616 82.7063 12.744H72.9863C73.0343 13.24 73.1543 13.68 73.3463 14.064C73.5383 14.448 73.7863 14.776 74.0903 15.048C74.3943 15.32 74.7383 15.528 75.1223 15.672C75.5063 15.816 75.9063 15.888 76.3223 15.888C76.9623 15.888 77.5623 15.736 78.1223 15.432C78.6983 15.112 79.0903 14.696 79.2983 14.184L82.0583 14.952C81.5943 15.912 80.8503 16.704 79.8263 17.328C78.8183 17.936 77.6103 18.24 76.2023 18.24ZM79.4663 10.656C79.3863 9.712 79.0343 8.96 78.4103 8.4C77.8023 7.824 77.0583 7.536 76.1783 7.536C75.7463 7.536 75.3383 7.616 74.9543 7.776C74.5863 7.92 74.2583 8.128 73.9703 8.4C73.6823 8.672 73.4423 9 73.2503 9.384C73.0743 9.768 72.9703 10.192 72.9383 10.656H79.4663ZM89.9454 18.24C89.0814 18.24 88.2814 18.072 87.5454 17.736C86.8094 17.4 86.1774 16.936 85.6494 16.344C85.1214 15.752 84.7054 15.064 84.4014 14.28C84.1134 13.48 83.9694 12.624 83.9694 11.712C83.9694 10.8 84.1054 9.952 84.3774 9.168C84.6654 8.384 85.0574 7.696 85.5534 7.104C86.0494 6.512 86.6414 6.048 87.3294 5.712C88.0174 5.376 88.7694 5.208 89.5854 5.208C90.5134 5.208 91.3454 5.432 92.0814 5.88C92.8334 6.328 93.4174 6.912 93.8334 7.632V0.48H97.0494V14.304C97.0494 14.64 97.1054 14.88 97.2174 15.024C97.3294 15.168 97.5214 15.248 97.7934 15.264V18C97.2334 18.112 96.7774 18.168 96.4254 18.168C95.8494 18.168 95.3774 18.024 95.0094 17.736C94.6414 17.448 94.4334 17.072 94.3854 16.608L94.3134 15.816C93.8494 16.616 93.2174 17.224 92.4174 17.64C91.6334 18.04 90.8094 18.24 89.9454 18.24ZM90.7854 15.504C91.0894 15.504 91.4014 15.456 91.7214 15.36C92.0414 15.248 92.3374 15.096 92.6094 14.904C92.8814 14.712 93.1214 14.488 93.3294 14.232C93.5534 13.976 93.7214 13.696 93.8334 13.392V10.392C93.7054 10.04 93.5214 9.72 93.2814 9.432C93.0574 9.128 92.7934 8.872 92.4894 8.664C92.2014 8.44 91.8894 8.264 91.5534 8.136C91.2334 8.008 90.9134 7.944 90.5934 7.944C90.1134 7.944 89.6654 8.048 89.2494 8.256C88.8494 8.464 88.5054 8.752 88.2174 9.12C87.9294 9.472 87.7054 9.88 87.5454 10.344C87.3854 10.808 87.3054 11.288 87.3054 11.784C87.3054 12.312 87.3934 12.8 87.5694 13.248C87.7454 13.696 87.9854 14.088 88.2894 14.424C88.5934 14.76 88.9534 15.024 89.3694 15.216C89.8014 15.408 90.2734 15.504 90.7854 15.504Z" fill="white"/>
</svg>
