<svg width="24" height="24" viewBox="0 0 24 24" fill="none" xmlns="http://www.w3.org/2000/svg">
<path fill-rule="evenodd" clip-rule="evenodd" d="M12 0C18.6276 0 24 5.37242 24 12C24 18.1353 19.3957 23.1947 13.4537 23.9123V15.667H16.7L16.7 15.667H16.7L17.3734 12H13.4537V10.7033C13.4537 9.28587 13.8606 8.50637 14.8491 8.18992C15.212 8.07374 15.6534 8.01998 16.1818 8.01998C16.7929 8.01998 17.2847 8.03507 17.568 8.06477V8.06475C17.5681 8.06475 17.5681 8.06475 17.5681 8.06475V4.74059C17.0315 4.59159 15.7198 4.44212 14.9592 4.44212C11.8246 4.44212 10.0109 5.59907 9.36852 8.05556C9.18915 8.74139 9.10109 9.5285 9.10109 10.42V12H6.62664V12H6.62659V15.667H9.10109V23.6468C3.87439 22.3497 0 17.628 0 12C0 5.37242 5.37242 0 12 0Z" fill="black"/>
</svg>
