<svg width="24" height="24" viewBox="0 0 24 24" fill="none" xmlns="http://www.w3.org/2000/svg">
<path fill-rule="evenodd" clip-rule="evenodd" d="M21.75 0H2.25C1.01256 0 0 1.01256 0 2.25V21.7498C0 22.9874 1.01256 23.9998 2.25 23.9998L21.75 24C22.9874 24 24 22.9874 24 21.75V2.25C24 1.01256 22.9874 0 21.75 0ZM16.4165 7.67328C15.6384 7.16616 15.077 6.35424 14.9018 5.40816C14.8642 5.20392 14.843 4.99344 14.843 4.77816H12.36L12.3559 14.7298C12.3142 15.8441 11.3969 16.7386 10.2727 16.7386C9.92304 16.7386 9.59424 16.6514 9.30432 16.4988C8.64 16.1491 8.1852 15.4529 8.1852 14.6515C8.1852 13.5005 9.12168 12.564 10.2725 12.564C10.4873 12.564 10.6934 12.5995 10.8883 12.6602V10.1254C10.6865 10.0978 10.4815 10.0807 10.2725 10.0807C7.75224 10.0807 5.70216 12.131 5.70216 14.6515C5.70216 16.1976 6.47448 17.5661 7.65336 18.3936C8.39568 18.9149 9.29904 19.2218 10.2727 19.2218C12.793 19.2218 14.843 17.1715 14.843 14.6515V9.60504C15.817 10.3039 17.0102 10.7158 18.2978 10.7158V8.23272C17.6045 8.23272 16.9586 8.02656 16.4165 7.67328Z" fill="black"/>
</svg>
