<svg width="15" height="15" viewBox="0 0 15 15" fill="none" xmlns="http://www.w3.org/2000/svg">
<path fill-rule="evenodd" clip-rule="evenodd" d="M7.49981 6.66652C8.88049 6.66652 9.99976 5.54726 9.99976 4.16658C9.99976 2.78589 8.88049 1.66663 7.49981 1.66663C6.11913 1.66663 4.99987 2.78589 4.99987 4.16658C4.99987 5.54726 6.11913 6.66652 7.49981 6.66652ZM7.49981 8.33315C9.80095 8.33315 11.6664 6.46771 11.6664 4.16658C11.6664 1.86544 9.80095 0 7.49981 0C5.19867 0 3.33323 1.86544 3.33323 4.16658C3.33323 6.46771 5.19867 8.33315 7.49981 8.33315Z" fill="black"/>
<path fill-rule="evenodd" clip-rule="evenodd" d="M7.49981 8.33315C4.27822 8.33315 1.66663 10.9449 1.66663 14.1665C1.66663 14.6267 1.29354 14.9998 0.833315 14.9998C0.373088 14.9998 0 14.6267 0 14.1665C0 10.0244 3.35777 6.66652 7.49981 6.66652C11.6419 6.66652 14.9997 10.0244 14.9997 14.1665C14.9997 14.6267 14.6266 14.9998 14.1664 14.9998C13.7061 14.9998 13.333 14.6267 13.333 14.1665C13.333 10.9449 10.7214 8.33315 7.49981 8.33315Z" fill="black"/>
</svg>
