<svg width="24" height="18" viewBox="0 0 24 18" fill="none" xmlns="http://www.w3.org/2000/svg">
<path fill-rule="evenodd" clip-rule="evenodd" d="M23.755 4.20144C23.755 4.20144 23.5207 2.54713 22.7996 1.82075C21.8859 0.865363 20.8628 0.859176 20.395 0.803826C17.039 0.559326 11.9986 0.559326 11.9986 0.559326H11.9898C11.9898 0.559326 6.95156 0.559326 3.59377 0.803826C3.12427 0.860939 2.10247 0.864951 1.18916 1.82075C0.467662 2.54713 0.238237 4.20144 0.238237 4.20144C0.238237 4.20144 -0.000488281 6.14274 -0.000488281 8.08805V9.90714C-0.000488281 11.8484 0.238237 13.7938 0.238237 13.7938C0.238237 13.7938 0.472537 15.448 1.18916 16.1758C2.10247 17.1311 3.30277 17.1001 3.83872 17.202C5.76011 17.3854 12.0004 17.4407 12.0004 17.4407C12.0004 17.4407 17.0452 17.4319 20.4012 17.1918C20.8707 17.1364 21.8921 17.1307 22.8058 16.1749C23.5273 15.4485 23.7612 13.7924 23.7612 13.7924C23.7612 13.7924 24 11.8511 24 9.90579V8.08674C23.9951 6.1454 23.7563 4.20013 23.7563 4.20013L23.755 4.20144ZM9.51251 12.1142V5.369L15.996 8.75289L9.51251 12.1142Z" fill="black"/>
</svg>
